<svg width="12" height="18" viewBox="0 0 12 18" fill="none" xmlns="http://www.w3.org/2000/svg">
<path d="M11.0977 18H1.04297V15.6562L5.66016 9.78516C6.24609 8.97266 6.67578 8.26172 6.94922 7.65234C7.23047 7.03516 7.37109 6.44531 7.37109 5.88281C7.37109 5.125 7.23828 4.53125 6.97266 4.10156C6.71484 3.67188 6.33984 3.45703 5.84766 3.45703C5.30859 3.45703 4.87891 3.70703 4.55859 4.20703C4.24609 4.70703 4.08984 5.41016 4.08984 6.31641H0.761719C0.761719 5.26953 0.976562 4.3125 1.40625 3.44531C1.84375 2.57812 2.45312 1.90625 3.23438 1.42969C4.02344 0.945312 4.91406 0.703125 5.90625 0.703125C7.42969 0.703125 8.60938 1.125 9.44531 1.96875C10.2891 2.80469 10.7109 3.99609 10.7109 5.54297C10.7109 6.50391 10.4766 7.48047 10.0078 8.47266C9.54688 9.45703 8.70703 10.6719 7.48828 12.1172L5.29688 15.2461H11.0977V18Z" fill="white"/>
</svg>
