<svg width="20" height="19" viewBox="0 0 20 19" fill="none" xmlns="http://www.w3.org/2000/svg">
<g filter="url(#filter0_d_1064_14)">
<path d="M19.2167 14.3333H16.9683C17.8109 13.9704 18.5269 13.3655 19.0253 12.5953C19.1316 12.4186 19.1451 12.2012 19.0617 12.0127C19.0397 11.9627 19.0123 11.9027 18.9817 11.8373C19.3773 11.2658 19.6721 10.6307 19.8533 9.95967C20.0064 9.23246 20.0416 8.48536 19.9573 7.747C19.923 7.43433 19.7116 7.16943 19.4143 7.06667C19.0763 5.44467 18.6213 5.18567 18.4673 5.1C18.2717 4.98786 18.0355 4.97117 17.826 5.05467C17.0007 5.369 16.9977 6.10667 16.995 6.757C16.995 6.91267 16.99 7.07167 16.98 7.23033C16.6598 7.30508 16.4013 7.5407 16.2973 7.85267C16.2308 8.04706 16.1384 8.2316 16.0227 8.40133C15.8851 8.3281 15.7434 8.26288 15.5983 8.206C15.4604 8.15489 15.3086 8.15548 15.171 8.20767L13.4593 8.86167C13.3249 8.91372 13.2128 9.01096 13.1423 9.13667C13.0631 9.28124 12.9918 9.43002 12.9287 9.58233C12.8394 9.55503 12.7519 9.5223 12.6667 9.48433V5.66667C12.6667 5.29848 12.3682 5 12 5H4C3.63181 5 3.33333 5.29848 3.33333 5.66667V6.12067C3.02528 6.04058 2.70829 6.00003 2.39 6C0 6 0 8.62667 0 9.49C0 11.4197 0.938 12.6667 2.39 12.6667C2.77465 12.6646 3.15719 12.6098 3.527 12.504C3.77309 13.2437 4.25002 13.8849 4.88767 14.3333H2.11667C1.92418 14.317 1.73314 14.3782 1.58602 14.5034C1.43891 14.6286 1.34794 14.8074 1.33333 15V15.6667C1.33333 16.4143 2.07267 17 3.01667 17H18.3167C19.2607 17 20 16.4143 20 15.6667V15C19.9854 14.8074 19.8944 14.6286 19.7473 14.5034C19.6002 14.3782 19.4091 14.317 19.2167 14.3333ZM18.0627 5.67533C18.0876 5.66191 18.1179 5.66346 18.1413 5.67933C18.1983 5.711 18.472 5.92133 18.7237 7.025C18.4433 7.03667 18.08 7.06133 17.657 7.116C17.6613 6.99167 17.6623 6.87033 17.6627 6.75733C17.6643 6.06667 17.698 5.81433 18.0627 5.67533ZM16.9333 8.05467C16.9673 7.95548 17.0532 7.88307 17.1567 7.86633C17.2183 7.85367 17.2793 7.84467 17.347 7.833C17.9291 7.73465 18.518 7.68304 19.1083 7.67867H19.1303C19.2117 7.67312 19.2837 7.73124 19.2953 7.812C19.3721 8.47548 19.3422 9.14698 19.2067 9.801C19.0808 10.2766 18.8857 10.7311 18.6277 11.15C18.1229 10.2172 17.4293 9.39982 16.591 8.75C16.7352 8.53427 16.8503 8.30048 16.9333 8.05467ZM13.7167 9.475L15.3877 8.83667C17.172 9.53833 18.2543 11.8273 18.4543 12.2567C18.27 12.5753 17.6767 13.3797 16.1513 13.9617C15.6282 14.1676 15.0768 14.2929 14.516 14.3333H14.0763C13.8437 14.3226 13.6134 14.2812 13.3917 14.21C13.3727 14.1283 13.347 14.0163 13.3213 13.8817C13.1627 13.056 12.8857 10.981 13.7153 9.475H13.7167ZM11.6863 13.819C12.015 13.9785 12.3568 14.1092 12.708 14.2097C12.718 14.2563 12.7273 14.296 12.7357 14.3333H11.1C11.3131 14.1831 11.5097 14.0107 11.6863 13.819ZM12.5773 13.4667C12.1287 13.3183 11.7065 13.0995 11.3267 12.8183C10.8297 12.4024 10.4067 11.9054 10.0757 11.3483C10.0361 11.2632 10.061 11.162 10.1357 11.105C10.14 11.101 10.1443 11.097 10.148 11.093C10.6076 10.697 11.0969 10.337 11.6117 10.016C11.6647 9.98267 11.7177 9.947 11.782 9.90967C11.8596 9.85915 11.9592 9.85695 12.039 9.904C12.2477 10.0363 12.4737 10.1389 12.7107 10.209C12.4505 11.2753 12.4051 12.3827 12.5773 13.4667ZM9.692 8.90933C9.70246 8.87407 9.72965 8.84625 9.76467 8.835C10.118 8.70167 10.2797 8.861 10.6913 9.38867C10.762 9.479 10.8377 9.57567 10.919 9.67267C10.5557 9.91633 10.2567 10.1423 10.0307 10.3243C9.684 9.55167 9.622 9.09 9.692 8.90933ZM3.33333 10.4577C3.03644 10.5909 2.71541 10.6621 2.39 10.6667C2.13667 10.6667 2 10.0603 2 9.49C2 8 2.22533 8 2.39 8C2.73128 7.98609 3.06615 8.09555 3.33333 8.30833V10.4577ZM0.666667 9.491C0.666667 8.17567 0.862667 6.66667 2.39 6.66667C2.71027 6.66507 3.02874 6.71469 3.33333 6.81367V7.53C3.03701 7.39639 2.71503 7.32926 2.39 7.33333C1.414 7.33333 1.33333 8.35367 1.33333 9.49C1.33333 10.6443 1.72833 11.3333 2.39 11.3333C2.71147 11.33 3.03019 11.2737 3.33333 11.1667V11.3333C3.33475 11.5076 3.34879 11.6815 3.37533 11.8537C3.05532 11.9482 2.72366 11.9974 2.39 12C1.311 12 0.666667 11.0617 0.666667 9.49V9.491ZM4.07767 12.008C4.02574 11.7869 3.99968 11.5605 4 11.3333L4 5.66667H12V9.215C11.8253 9.19873 11.6497 9.23346 11.4943 9.315C11.398 9.205 11.3053 9.09167 11.217 8.97833C10.8393 8.49433 10.3703 7.89067 9.52767 8.21167C9.31644 8.28971 9.14963 8.45579 9.07067 8.66667C8.897 9.11433 9.04833 9.81967 9.52367 10.8103C9.34945 11.0794 9.34363 11.4242 9.50867 11.699C9.88176 12.3238 10.3585 12.8805 10.9183 13.3453C10.9767 13.3903 11.037 13.4313 11.0973 13.4727C10.5392 14.0251 9.7853 14.3345 9 14.3333H7C5.60091 14.3391 4.38577 13.3718 4.07767 12.007V12.008ZM19.3333 15.6667C19.3333 16.028 18.8667 16.3333 18.3167 16.3333H3.01667C2.46667 16.3333 2 16.028 2 15.6667V15.0303C2.03515 15.0092 2.07567 14.9986 2.11667 15H19.2167C19.2577 14.9986 19.2982 15.0092 19.3333 15.0303V15.6667Z" fill="#63A233"/>
<path d="M7.33403 3.66667C7.33403 3.85076 7.48327 4 7.66736 4C7.85145 4 8.00069 3.85076 8.00069 3.66667C7.99848 3.43152 8.09254 3.20571 8.26102 3.04167C8.80281 2.4529 8.80281 1.5471 8.26102 0.958334C8.09254 0.794292 7.99848 0.568476 8.00069 0.333333C8.00069 0.149238 7.85145 0 7.66736 0C7.48327 0 7.33403 0.149238 7.33403 0.333333C7.33109 0.719777 7.47653 1.09262 7.74036 1.375C7.90699 1.54029 8.00072 1.76529 8.00072 2C8.00072 2.23471 7.90699 2.45971 7.74036 2.625C7.47653 2.90738 7.33109 3.28022 7.33403 3.66667Z" fill="#63A233"/>
<path d="M5.33403 3.66667C5.33403 3.85076 5.48327 4 5.66736 4C5.85145 4 6.00069 3.85076 6.00069 3.66667C5.99848 3.43152 6.09254 3.20571 6.26102 3.04167C6.80281 2.4529 6.80281 1.5471 6.26102 0.958334C6.09254 0.794292 5.99848 0.568476 6.00069 0.333333C6.00069 0.149238 5.85145 0 5.66736 0C5.48327 0 5.33403 0.149238 5.33403 0.333333C5.33109 0.719777 5.47653 1.09262 5.74036 1.375C5.90699 1.54029 6.00072 1.76529 6.00072 2C6.00072 2.23471 5.90699 2.45971 5.74036 2.625C5.47653 2.90738 5.33109 3.28022 5.33403 3.66667Z" fill="#63A233"/>
<path d="M9.33207 3.66667C9.33207 3.85076 9.48131 4 9.66541 4C9.8495 4 9.99874 3.85076 9.99874 3.66667C9.99652 3.43152 10.0906 3.20571 10.2591 3.04167C10.8009 2.4529 10.8009 1.5471 10.2591 0.958334C10.0906 0.794292 9.99652 0.568476 9.99874 0.333333C9.99874 0.149238 9.8495 0 9.66541 0C9.48131 0 9.33207 0.149238 9.33207 0.333333C9.32914 0.719777 9.47457 1.09262 9.73841 1.375C9.90504 1.54029 9.99877 1.76529 9.99877 2C9.99877 2.23471 9.90504 2.45971 9.73841 2.625C9.47457 2.90738 9.32914 3.28022 9.33207 3.66667Z" fill="#63A233"/>
</g>
<defs>
<filter id="filter0_d_1064_14" x="-4" y="0" width="28.002" height="25" filterUnits="userSpaceOnUse" color-interpolation-filters="sRGB">
<feFlood flood-opacity="0" result="BackgroundImageFix"/>
<feColorMatrix in="SourceAlpha" type="matrix" values="0 0 0 0 0 0 0 0 0 0 0 0 0 0 0 0 0 0 127 0" result="hardAlpha"/>
<feOffset dy="4"/>
<feGaussianBlur stdDeviation="2"/>
<feComposite in2="hardAlpha" operator="out"/>
<feColorMatrix type="matrix" values="0 0 0 0 0 0 0 0 0 0 0 0 0 0 0 0 0 0 0.25 0"/>
<feBlend mode="normal" in2="BackgroundImageFix" result="effect1_dropShadow_1064_14"/>
<feBlend mode="normal" in="SourceGraphic" in2="effect1_dropShadow_1064_14" result="shape"/>
</filter>
</defs>
</svg>
